<?xml version="1.0" encoding="utf-8"?>
<!-- Generator: Adobe Illustrator 24.0.3, SVG Export Plug-In . SVG Version: 6.00 Build 0)  -->
<svg version="1.1" id="Layer_1" xmlns="http://www.w3.org/2000/svg" xmlns:xlink="http://www.w3.org/1999/xlink" x="0px" y="0px"
	 viewBox="0 0 1700.79 1700.79" style="enable-background:new 0 0 1700.79 1700.79;" xml:space="preserve">
<style type="text/css">
	.st0{fill:#010202;}
</style>
<g>
	<g>
		<g>
			<g>
				<path class="st0" d="M566.76,646.96h11.45c8.27,0,12.73,4.46,12.73,12.73v80.19h42.32v-80.19c0-8.27,4.46-12.73,12.73-12.73
					h11.45c8.27,0,12.73,4.46,12.73,12.73v197.29c0,8.27-4.46,12.73-12.73,12.73h-11.45c-8.27,0-12.73-4.46-12.73-12.73v-84h-42.32
					v84c0,8.27-4.46,12.73-12.73,12.73h-11.45c-8.27,0-12.73-4.46-12.73-12.73V659.69C554.03,651.41,558.49,646.96,566.76,646.96z"
					/>
				<path class="st0" d="M787.93,869.71h-73.19c-8.27,0-12.73-4.46-12.73-12.73V659.69c0-8.27,4.46-12.73,12.73-12.73h72.23
					c8.27,0,12.73,4.46,12.73,12.73v7c0,8.27-4.46,12.72-12.73,12.72h-48.05v61.1h38.18c8.27,0,12.73,4.46,12.73,12.73v7
					c0,8.27-4.46,12.73-12.73,12.73h-38.18v64.28h49.01c8.27,0,12.73,4.46,12.73,12.73v7C800.66,865.25,796.21,869.71,787.93,869.71
					z"/>
				<path class="st0" d="M930.19,869.71h-11.13c-7.32,0-12.09-3.18-14.32-10.5l-24.82-78.28h-18.78v76.05
					c0,8.27-4.46,12.73-12.73,12.73h-11.45c-8.27,0-12.73-4.46-12.73-12.73V659.69c0-8.27,4.46-12.73,12.73-12.73h44.87
					c33.73,0,56,13.37,56,47.1v39.78c0,21.32-8.91,34.69-24.18,41.36l27.05,79.87C943.56,863.66,939.42,869.71,930.19,869.71z
					 M861.14,749.1h19.41c12.09,0,20.37-4.46,20.37-20.37v-28.96c0-15.91-8.27-20.37-20.37-20.37h-19.41V749.1z"/>
				<path class="st0" d="M1053.68,869.71h-73.19c-8.27,0-12.73-4.46-12.73-12.73V659.69c0-8.27,4.46-12.73,12.73-12.73h72.23
					c8.27,0,12.73,4.46,12.73,12.73v7c0,8.27-4.46,12.72-12.73,12.72h-48.05v61.1h38.18c8.27,0,12.73,4.46,12.73,12.73v7
					c0,8.27-4.46,12.73-12.73,12.73h-38.18v64.28h49c8.27,0,12.73,4.46,12.73,12.73v7C1066.41,865.25,1061.96,869.71,1053.68,869.71
					z"/>
				<path class="st0" d="M554.03,1174.82V977.53c0-8.27,4.46-12.73,12.73-12.73h70.96c8.27,0,12.73,4.46,12.73,12.73v7
					c0,8.27-4.46,12.72-12.73,12.72h-46.78v62.69h36.91c8.27,0,12.73,4.45,12.73,12.72v7c0,8.27-4.46,12.73-12.73,12.73h-36.91
					v82.41c0,8.27-4.46,12.73-12.73,12.73h-11.45C558.49,1187.55,554.03,1183.1,554.03,1174.82z"/>
				<path class="st0" d="M724.28,962.26h2.55c33.73,0,56.01,13.36,56.01,47.1V1143c0,33.73-22.28,47.1-56.01,47.1h-2.55
					c-33.73,0-56-13.37-56-47.1v-133.65C668.28,975.3,690.56,962.26,724.28,962.26z M725.56,1157.64c12.09,0,20.37-4.46,20.37-20.37
					v-122.19c0-15.92-8.27-20.37-20.37-20.37s-20.37,4.45-20.37,20.37v122.19C705.2,1153.19,713.47,1157.64,725.56,1157.64z"/>
				<path class="st0" d="M919.38,1187.55h-11.13c-7.32,0-12.09-3.18-14.32-10.5l-24.82-78.28h-18.78v76.05
					c0,8.27-4.46,12.73-12.73,12.73h-11.45c-8.27,0-12.73-4.46-12.73-12.73V977.53c0-8.27,4.46-12.73,12.73-12.73h44.87
					c33.73,0,56,13.37,56,47.1v39.78c0,21.32-8.91,34.69-24.18,41.36l27.05,79.87C932.75,1181.51,928.61,1187.55,919.38,1187.55z
					 M850.32,1066.95h19.42c12.09,0,20.37-4.46,20.37-20.37v-28.96c0-15.91-8.27-20.37-20.37-20.37h-19.42V1066.95z"/>
				<path class="st0" d="M665.4,1427.43v33.41c0,34.37-22.27,47.1-56,47.1h-0.64c-33.73,0-56-12.41-56-47.1V1327.2
					c0-33.1,22.27-47.1,56-47.1h0.64c33.73,0,56,14,56,47.1v28c0,8.27-4.45,12.73-12.72,12.73h-11.46
					c-8.27,0-12.72-4.46-12.72-12.73v-22.27c0-15.6-7.64-20.37-19.41-20.37s-19.41,4.77-19.41,20.37v122.19
					c0,15.59,7.64,20.37,19.41,20.37s19.41-4.78,19.41-20.37v-27.69c0-8.27,4.45-12.72,12.72-12.72h11.46
					C660.95,1414.71,665.4,1419.16,665.4,1427.43z"/>
				<path class="st0" d="M806.07,1295.38v165.47c0,34.37-21.64,47.1-55.37,47.1h-1.28c-33.73,0-55.37-12.41-55.37-47.1v-165.47
					c0-8.27,4.46-12.73,12.73-12.73h11.46c8.27,0,12.72,4.46,12.72,12.73v159.74c0,15.91,7,20.37,19.1,20.37
					c12.09,0,19.1-4.46,19.1-20.37v-159.74c0-8.27,4.45-12.73,12.72-12.73h11.46C801.62,1282.65,806.07,1287.1,806.07,1295.38z"/>
				<path class="st0" d="M931.15,1485.03v7.64c0,8.27-4.46,12.73-12.73,12.73H850c-8.27,0-12.73-4.46-12.73-12.73v-197.29
					c0-8.27,4.46-12.73,12.73-12.73h11.46c8.27,0,12.73,4.46,12.73,12.73v176.92h44.23C926.69,1472.3,931.15,1476.76,931.15,1485.03
					z"/>
				<path class="st0" d="M1029.17,1295.38v7c0,8.27-4.45,12.72-12.72,12.72h-24.5v177.56c0,8.27-4.46,12.73-12.73,12.73h-11.45
					c-8.27,0-12.73-4.46-12.73-12.73v-177.56h-24.5c-8.27,0-12.73-4.45-12.73-12.72v-7c0-8.27,4.46-12.73,12.73-12.73h85.92
					C1024.72,1282.65,1029.17,1287.1,1029.17,1295.38z"/>
				<path class="st0" d="M1158.39,1295.38v165.47c0,34.37-21.64,47.1-55.37,47.1h-1.28c-33.73,0-55.37-12.41-55.37-47.1v-165.47
					c0-8.27,4.46-12.73,12.73-12.73h11.46c8.27,0,12.72,4.46,12.72,12.73v159.74c0,15.91,7,20.37,19.1,20.37
					c12.09,0,19.1-4.46,19.1-20.37v-159.74c0-8.27,4.45-12.73,12.72-12.73h11.46C1153.93,1282.65,1158.39,1287.1,1158.39,1295.38z"
					/>
				<path class="st0" d="M1295.55,1505.4h-11.13c-7.32,0-12.09-3.18-14.32-10.5l-24.82-78.28h-18.78v76.05
					c0,8.27-4.46,12.73-12.73,12.73h-11.45c-8.27,0-12.73-4.46-12.73-12.73v-197.29c0-8.27,4.46-12.73,12.73-12.73h44.87
					c33.73,0,56,13.37,56,47.1v39.78c0,21.32-8.91,34.69-24.18,41.36l27.05,79.87C1308.92,1499.35,1304.79,1505.4,1295.55,1505.4z
					 M1226.5,1384.79h19.41c12.09,0,20.37-4.46,20.37-20.37v-28.96c0-15.91-8.27-20.37-20.37-20.37h-19.41V1384.79z"/>
				<path class="st0" d="M1419.04,1505.4h-73.19c-8.27,0-12.73-4.46-12.73-12.73v-197.29c0-8.27,4.46-12.73,12.73-12.73h72.23
					c8.27,0,12.73,4.46,12.73,12.73v7c0,8.27-4.46,12.72-12.73,12.72h-48.05v61.1h38.18c8.27,0,12.73,4.46,12.73,12.73v7
					c0,8.27-4.46,12.73-12.73,12.73h-38.18v64.28h49c8.27,0,12.73,4.46,12.73,12.73v7
					C1431.77,1500.94,1427.31,1505.4,1419.04,1505.4z"/>
			</g>
		</g>
	</g>
	<path class="st0" d="M420.27,1265.4c-4.92,0-9.92-1.01-14.7-3.16l-290.52-130.15c-18.14-8.12-26.27-29.43-18.13-47.57L528.6,120.91
		c3.9-8.72,11.11-15.52,20.03-18.92c8.92-3.41,18.83-3.12,27.54,0.78l1009.57,452.28c18.14,8.13,26.26,29.42,18.13,47.57
		l-235.3,525.23c-8.12,18.14-29.41,26.28-47.57,18.13c-18.14-8.12-26.26-29.43-18.13-47.57l220.58-492.37L579.59,183.2
		l-402.26,897.9L435,1196.54c18.14,8.12,26.27,29.43,18.13,47.57C447.15,1257.47,434.02,1265.4,420.27,1265.4z"/>
</g>
</svg>
