<svg width="959" height="520" viewBox="0 0 959 520" fill="none" xmlns="http://www.w3.org/2000/svg">
<path d="M345 316.15C338.93 328.15 330.92 335.2 318.7 335.2C304.88 335.2 297.76 325.96 295.97 315.2C288.39 324.13 278.59 327.14 268.34 323.99C257.2 320.44 249.63 309.86 249.63 292.92C249.63 269.73 262.55 240.33 277.25 227.84L270.34 212.56C269.5 214.56 263.25 226.81 260.23 231.88L251.02 227.88C251.02 227.88 257.43 213.76 258.85 210.77C272.94 180.95 289.05 153.58 289.05 135.3C289.05 127.72 283.8 122.49 279.39 122.37C265.56 121.98 244.73 152.06 224.24 196.18C207.93 231.05 198.63 256.02 197.24 274.28L187.71 277.83C175.24 259.72 156.88 246.1 134.71 246.1C116 246.1 105.71 255 105.71 261.27C105.71 267.07 111.5 269.27 114.62 270.18C141.8 277.32 152.5 299.59 160.96 333.02C173.44 381.62 205.53 414.16 252.31 414.16C300.89 414.21 347.25 372.31 345 316.15ZM209.39 345.44L220.93 340.04C232.28 373.51 264.93 382.69 295.21 366.94L299.9 378.4C260.22 400.93 223.32 386.54 209.39 345.44Z" fill="white"/>
<path d="M243.421 135.15C234.474 115.55 226.901 105.747 220.701 105.74C211.771 105.74 207.771 116.89 207.771 126.24C207.771 137.39 211.771 152.99 219.771 173.95C227.821 157.89 235.851 145 243.421 135.15Z" fill="white"/>
<path d="M261.25 293.001C261.25 308.161 267.93 313.881 275.94 313.831C286.1 313.761 297 300.141 304.58 277.831C313.94 254.671 313.22 235.301 303.91 231.001C284.68 222.081 261.25 264.441 261.25 293.001ZM278.75 302.921C276.703 302.923 274.7 302.317 272.997 301.181C271.294 300.045 269.966 298.429 269.181 296.538C268.396 294.647 268.189 292.566 268.588 290.557C268.986 288.549 269.971 286.704 271.418 285.256C272.865 283.807 274.709 282.82 276.717 282.42C278.725 282.02 280.807 282.224 282.698 283.007C284.59 283.791 286.207 285.117 287.345 286.819C288.483 288.522 289.09 290.523 289.09 292.571C289.079 295.307 287.986 297.928 286.048 299.86C284.11 301.792 281.486 302.878 278.75 302.881V302.921Z" fill="white"/>
<path d="M318.73 324C332.73 324 344.12 303.19 347.25 284.45C349.92 268.45 345.92 256.38 337.01 256.38C327.21 256.38 314.16 276.38 309.26 295.6C306.15 306.33 305.36 324 318.73 324ZM323.38 295.71C325.223 295.71 327.025 296.256 328.558 297.281C330.09 298.305 331.285 299.76 331.99 301.463C332.696 303.166 332.88 305.04 332.521 306.848C332.161 308.656 331.274 310.317 329.97 311.62C328.667 312.924 327.006 313.811 325.198 314.171C323.39 314.53 321.516 314.346 319.813 313.64C318.11 312.935 316.655 311.74 315.631 310.208C314.607 308.675 314.06 306.873 314.06 305.03C314.068 302.563 315.053 300.2 316.8 298.459C318.547 296.718 320.913 295.74 323.38 295.74V295.71Z" fill="white"/>
<path d="M337 244.37C333.87 244.37 327.19 246.15 323.61 249.72C324.96 234.11 319.17 222.54 308.47 218.52C301.9 216.344 294.759 216.665 288.41 219.42L279.71 198.42C287.71 178.8 301.77 154.92 301.77 135.31C301.77 120.17 294.11 109.01 279.41 109.01C270.49 109.01 260.66 116.31 253.21 125.75C243 103.06 232.27 92.3604 220.7 92.3604C202.43 92.3604 194.85 110.65 194.85 126.24C194.85 139.17 198.41 160.56 212.24 190.88C202.55 212.024 194.201 233.757 187.24 255.95C176.11 244.37 157.83 232.78 134.66 232.78C122.66 232.78 112.38 235.9 104.36 241.27C96.7904 246.61 92.3604 253.73 92.3604 261.27C92.3604 272.4 99.9403 280 111.52 283.11C131.52 288.45 140.52 304.5 148.06 336.11C161.88 393.16 197.52 427.48 252.33 427.48C280.21 427.425 306.932 416.322 326.643 396.604C346.353 376.886 357.445 350.16 357.49 322.28C357.458 314.651 356.715 307.042 355.27 299.55C356.944 295.206 358.281 290.74 359.27 286.19C364.18 261.75 354.82 244.37 337 244.37ZM252.33 414.21C205.55 414.21 173.46 381.67 160.98 333.07C152.52 299.64 141.82 277.37 114.64 270.23C111.52 269.34 105.73 267.12 105.73 261.32C105.73 255.05 115.98 246.15 134.73 246.15C156.93 246.15 175.29 259.77 187.73 277.88L197.26 274.33C198.67 256.07 207.97 231.1 224.26 196.23C244.75 152.11 265.58 122.03 279.41 122.42C283.82 122.54 289.07 127.77 289.07 135.35C289.07 153.63 272.96 181 258.87 210.82C257.45 213.82 251.04 227.93 251.04 227.93L260.25 231.93C263.25 226.86 269.52 214.65 270.36 212.61L277.27 227.89C262.57 240.38 249.65 269.78 249.65 292.97C249.65 309.91 257.22 320.49 268.36 324.04C278.61 327.19 288.41 324.18 295.99 315.25C297.78 325.97 304.9 335.25 318.72 335.25C330.94 335.25 338.95 328.25 345.02 316.2C347.25 372.31 300.89 414.21 252.33 414.21ZM220.7 105.74C226.934 105.74 234.507 115.544 243.42 135.15C235.85 144.96 227.82 157.89 219.81 173.95C211.81 152.95 207.81 137.39 207.81 126.24C207.77 116.89 211.77 105.74 220.7 105.74ZM304.58 277.79C297 300.1 286.1 313.72 275.94 313.79C267.94 313.79 261.25 308.12 261.25 292.96C261.25 264.44 284.68 222.08 303.91 230.96C313.22 235.26 313.94 254.63 304.58 277.79ZM337 256.41C345.91 256.41 349.91 268.41 347.24 284.48C344.11 303.22 332.74 324.03 318.72 324.03C305.35 324.03 306.14 306.33 309.25 295.63C314.16 276.46 327.21 256.41 337 256.41Z" fill="black"/>
<path d="M278.751 282.181C276.703 282.179 274.701 282.784 272.998 283.92C271.294 285.056 269.966 286.672 269.181 288.563C268.396 290.454 268.19 292.535 268.588 294.544C268.987 296.552 269.971 298.397 271.419 299.846C272.866 301.294 274.71 302.281 276.718 302.681C278.726 303.081 280.807 302.877 282.699 302.094C284.591 301.311 286.208 299.984 287.346 298.282C288.483 296.58 289.091 294.578 289.091 292.531C289.085 289.789 287.995 287.161 286.057 285.221C284.119 283.282 281.492 282.189 278.751 282.181V282.181Z" fill="black"/>
<path d="M220.931 340L209.391 345.4C223.321 386.5 260.221 400.89 299.901 378.4L295.211 366.94C265.001 382.69 232.281 373.51 220.931 340Z" fill="black"/>
<path d="M323.381 314.37C325.224 314.37 327.027 313.824 328.56 312.799C330.092 311.775 331.287 310.318 331.992 308.615C332.697 306.911 332.881 305.037 332.521 303.229C332.16 301.42 331.272 299.76 329.967 298.457C328.663 297.154 327.001 296.267 325.193 295.908C323.384 295.55 321.51 295.736 319.807 296.443C318.104 297.15 316.649 298.346 315.626 299.88C314.604 301.414 314.059 303.217 314.061 305.06C314.061 306.284 314.302 307.495 314.77 308.626C315.239 309.756 315.925 310.783 316.791 311.647C317.657 312.512 318.684 313.197 319.815 313.665C320.945 314.132 322.157 314.372 323.381 314.37Z" fill="black"/>
<path d="M825.28 333.391C825.564 332.947 825.707 332.427 825.69 331.901C825.704 331.57 825.643 331.241 825.514 330.936C825.384 330.632 825.188 330.36 824.94 330.141C824.405 329.688 823.72 329.453 823.02 329.481H819.78V337.271H821.7V334.571H822.27L823.98 337.271H826.15L824.23 334.271C824.659 334.087 825.024 333.781 825.28 333.391V333.391ZM823.52 332.831C823.211 332.986 822.866 333.059 822.52 333.041H821.73V331.041H822.84C823.107 331.026 823.369 331.108 823.58 331.271C823.684 331.367 823.763 331.485 823.814 331.617C823.864 331.749 823.883 331.89 823.87 332.031C823.885 332.183 823.86 332.336 823.799 332.476C823.738 332.616 823.642 332.738 823.52 332.831V332.831Z" fill="black"/>
<path d="M828.41 327.861C827.667 327.149 826.79 326.592 825.83 326.221C823.743 325.447 821.448 325.447 819.36 326.221C818.399 326.595 817.52 327.152 816.77 327.861C816.039 328.579 815.463 329.44 815.08 330.391C814.281 332.501 814.281 334.831 815.08 336.941C815.466 337.887 816.041 338.745 816.77 339.461C817.516 340.174 818.397 340.731 819.36 341.101C821.445 341.888 823.745 341.888 825.83 341.101C826.792 340.733 827.67 340.176 828.41 339.461C829.143 338.747 829.718 337.889 830.1 336.941C830.913 334.833 830.913 332.498 830.1 330.391C829.721 329.438 829.145 328.576 828.41 327.861V327.861ZM827.79 336.011C827.518 336.688 827.117 337.306 826.61 337.831C826.109 338.346 825.502 338.745 824.83 339.001C823.38 339.547 821.781 339.547 820.33 339.001C819.669 338.737 819.069 338.339 818.57 337.831C818.066 337.309 817.675 336.69 817.42 336.011C817.136 335.267 816.997 334.476 817.01 333.681C816.998 332.879 817.137 332.081 817.42 331.331C817.668 330.651 818.061 330.034 818.57 329.521C819.072 329.019 819.671 328.624 820.33 328.361C821.781 327.814 823.38 327.814 824.83 328.361C825.5 328.615 826.107 329.011 826.61 329.521C827.124 330.037 827.525 330.653 827.79 331.331C828.08 332.08 828.226 332.877 828.22 333.681C828.226 334.474 828.08 335.262 827.79 336.001V336.011Z" fill="black"/>
<path d="M395.401 210.091H414.191V156.331H435.511V140.061H373.881V156.331H395.401V210.091Z" fill="black"/>
<path d="M458.52 182.681H484.35V210.091H502.93V140.061H484.35V165.681H458.52V140.061H439.94V210.091H458.52V182.681Z" fill="black"/>
<path d="M563.92 194.021H529.9V182.051H556.04V166.941H529.9V156.131H561.71V140.061H511.32V210.091H563.92V194.021Z" fill="black"/>
<path d="M425.751 271.5L398.881 232.45H381.971V302.47H400.351V262.27L428.271 302.47H444.121V232.45H425.751V271.5Z" fill="black"/>
<path d="M472.08 232.45L446.36 302.45H465.57L470.19 288H493.6L498.11 302.48H518.17L493.39 232.48L472.08 232.45ZM473.97 274.45L482.05 248.72L489.82 274.45H473.97Z" fill="black"/>
<path d="M505.25 248.72H526.77V302.47H545.56V248.72H566.88V232.45H505.25V248.72Z" fill="black"/>
<path d="M589.87 232.45H571.29V302.47H589.87V232.45Z" fill="black"/>
<path d="M659.171 293.71C662.44 290.37 665.007 286.408 666.721 282.06C670.361 272.563 670.361 262.056 666.721 252.56C665.006 248.209 662.439 244.244 659.171 240.9C655.877 237.606 651.947 235.017 647.621 233.29C638.248 229.649 627.853 229.649 618.481 233.29C614.162 235.032 610.235 237.619 606.931 240.9C603.63 244.229 601.044 248.196 599.331 252.56C595.691 262.056 595.691 272.563 599.331 282.06C601.044 286.42 603.63 290.385 606.931 293.71C610.238 297 614.163 299.603 618.481 301.37C627.838 305.09 638.263 305.09 647.621 301.37C651.946 299.618 655.874 297.013 659.171 293.71V293.71ZM640.321 285.21C638.019 286.212 635.536 286.73 633.026 286.73C630.515 286.73 628.032 286.212 625.731 285.21C623.648 284.235 621.802 282.819 620.321 281.06C618.809 279.235 617.667 277.132 616.961 274.87C615.427 269.947 615.427 264.673 616.961 259.75C617.667 257.485 618.809 255.379 620.321 253.55C621.8 251.791 623.647 250.378 625.731 249.41C628.03 248.401 630.514 247.88 633.026 247.88C635.537 247.88 638.021 248.401 640.321 249.41C642.405 250.378 644.251 251.791 645.731 253.55C647.243 255.379 648.384 257.485 649.091 259.75C650.624 264.673 650.624 269.947 649.091 274.87C648.384 277.132 647.243 279.235 645.731 281.06C644.249 282.819 642.403 284.235 640.321 285.21V285.21Z" fill="black"/>
<path d="M738.32 302.47V232.45H719.95V271.5L693.07 232.45H676.17V302.47H694.54V262.27L722.47 302.47H738.32Z" fill="black"/>
<path d="M764.58 288H788L792.51 302.48H812.51L787.74 232.48H766.47L740.75 302.48H760L764.58 288ZM776.45 248.73L784.22 274.46H768.36L776.45 248.73Z" fill="black"/>
<path d="M833.58 286.1V232.45H815V302.47H866.02V286.1H833.58Z" fill="black"/>
<path d="M400.561 324.851H381.971V394.881H433.001V378.501H400.561V324.851Z" fill="black"/>
<path d="M495.001 333.3C491.71 330.002 487.78 327.412 483.451 325.69C478.821 323.859 473.879 322.945 468.901 323C463.922 322.949 458.982 323.877 454.361 325.73C450.017 327.458 446.075 330.06 442.779 333.375C439.483 336.69 436.904 340.647 435.201 345C431.561 354.497 431.561 365.004 435.201 374.5C436.921 378.862 439.51 382.829 442.811 386.16C446.119 389.449 450.044 392.052 454.361 393.82C458.974 395.705 463.917 396.65 468.901 396.6C473.9 396.647 478.859 395.702 483.491 393.82C487.831 392.082 491.767 389.471 495.054 386.147C498.342 382.823 500.91 378.859 502.601 374.5C506.241 365.004 506.241 354.497 502.601 345C500.878 340.63 498.294 336.651 495.001 333.3V333.3ZM484.921 367.3C484.214 369.566 483.073 371.672 481.561 373.5C480.083 375.256 478.24 376.669 476.161 377.64C473.859 378.649 471.374 379.17 468.861 379.17C466.348 379.17 463.862 378.649 461.561 377.64C459.481 376.669 457.639 375.256 456.161 373.5C454.649 371.672 453.508 369.566 452.801 367.3C451.254 362.383 451.254 357.108 452.801 352.19C453.508 349.925 454.649 347.819 456.161 345.99C457.639 344.234 459.481 342.822 461.561 341.85C463.862 340.841 466.348 340.32 468.861 340.32C471.374 340.32 473.859 340.841 476.161 341.85C478.24 342.822 480.083 344.234 481.561 345.99C483.073 347.819 484.214 349.925 484.921 352.19C486.468 357.108 486.468 362.383 484.921 367.3V367.3Z" fill="black"/>
<path d="M504.801 341.121H526.321V394.881H545.121V341.121H566.431V324.851H504.801V341.121Z" fill="black"/>
<path d="M570 341.121H591.52V394.881H610.31V341.121H631.62V324.851H570V341.121Z" fill="black"/>
<path d="M654.631 366.841H680.771V351.731H654.631V340.911H686.441V324.851H636.051V394.881H688.651V378.811H654.631V366.841Z" fill="black"/>
<path d="M745.441 359.861C747.518 356.21 748.555 352.06 748.441 347.861C748.514 344.443 747.909 341.044 746.661 337.861C745.567 335.113 743.856 332.653 741.661 330.671C739.388 328.686 736.724 327.2 733.841 326.311C730.525 325.291 727.07 324.795 723.601 324.841H694.601V394.841H712.761V371.001H720.531L732.391 394.841H752.391L737.391 367.961C740.704 365.969 743.47 363.186 745.441 359.861V359.861ZM727.801 354.191C727.005 354.953 726.063 355.546 725.032 355.934C724 356.322 722.901 356.498 721.801 356.451H712.801V339.551H721.721C722.858 339.482 723.997 339.652 725.065 340.05C726.133 340.448 727.105 341.065 727.921 341.861C729.458 343.587 730.249 345.852 730.121 348.161C730.174 349.272 729.996 350.382 729.596 351.42C729.197 352.459 728.585 353.402 727.801 354.191V354.191Z" fill="black"/>
<path d="M780.19 349.841L766.54 324.851H745.23L770.11 366.951V394.881H788.69V366.841L813.68 324.851H792.99L780.19 349.841Z" fill="black"/>
</svg>
